# xmcd CD database file
#
# Track frame offsets:
#	150
#	25542
#	57587
#	82493
#	110394
#	143311
#	174320
#	200831
#	231916
#	265130
#
# Disc length: 3940 seconds
#
# Revision: 1
# Processed by: cddbd v1.5.2PL0 Copyright (c) Steve Scherf et al.
# Submitted via: CDex 1.70beta2
#
DISCID=870f620a
DTITLE=Mayuko Katakura - Faith
DYEAR=2010
DGENRE=Jazz
TTITLE0=Mrs. Parker Of KC
TTITLE1=Blue Sonny
TTITLE2=Anywhere But Here
TTITLE3=Monk's Walking
TTITLE4=I've Got The World On A String
TTITLE5=Subconscious-Lee
TTITLE6=Yours And Mine
TTITLE7=A Dancer's Melancholy
TTITLE8=Reflections
TTITLE9=Two Roads
EXTD=YEAR: 2010
EXTT0=
EXTT1=
EXTT2=
EXTT3=
EXTT4=
EXTT5=
EXTT6=
EXTT7=
EXTT8=
EXTT9=
PLAYORDER=
